<mxfile host="Electron" agent="Mozilla/5.0 (Macintosh; Intel Mac OS X 10_15_7) AppleWebKit/537.36 (KHTML, like Gecko) draw.io/26.0.16 Chrome/132.0.6834.196 Electron/34.2.0 Safari/537.36" version="26.0.16">
  <diagram name="Page-1" id="1QVo8St9svC496PJVpKs">
    <mxGraphModel dx="3176" dy="3116" grid="1" gridSize="10" guides="0" tooltips="1" connect="1" arrows="1" fold="1" page="1" pageScale="1" pageWidth="1920" pageHeight="1200" background="none" math="0" shadow="0">
      <root>
        <mxCell id="0" />
        <mxCell id="1" parent="0" />
        <mxCell id="NGXht7qQBhghTflk5gut-8" value="&lt;div style=&quot;text-align: right;&quot;&gt;&lt;br&gt;&lt;/div&gt;" style="edgeStyle=orthogonalEdgeStyle;rounded=0;orthogonalLoop=1;jettySize=auto;html=1;exitX=0.4;exitY=1.009;exitDx=0;exitDy=0;entryX=0.25;entryY=0;entryDx=0;entryDy=0;curved=1;align=center;fillColor=#d80073;strokeColor=#A50040;strokeWidth=4;exitPerimeter=0;movable=0;resizable=0;rotatable=0;deletable=0;editable=0;locked=1;connectable=0;" parent="1" source="qPfNC7R-L8oKVAkXrzBr-1" target="NGXht7qQBhghTflk5gut-1" edge="1">
          <mxGeometry x="0.4444" y="-52" relative="1" as="geometry">
            <mxPoint as="offset" />
          </mxGeometry>
        </mxCell>
        <mxCell id="NGXht7qQBhghTflk5gut-54" value="&lt;div style=&quot;&quot;&gt;&lt;span style=&quot;font-size: 12px; background-color: light-dark(#ffffff, var(--ge-dark-color, #121212));&quot;&gt;&lt;font style=&quot;color: rgb(255, 0, 0);&quot;&gt;Unauthorized&lt;/font&gt;&lt;/span&gt;&lt;/div&gt;&lt;font style=&quot;font-size: 12px; color: rgb(255, 0, 0);&quot;&gt;&lt;div style=&quot;&quot;&gt;&lt;span style=&quot;background-color: light-dark(#ffffff, var(--ge-dark-color, #121212));&quot;&gt;(Redirect with back URL)&lt;/span&gt;&lt;/div&gt;&lt;/font&gt;" style="edgeLabel;html=1;align=right;verticalAlign=middle;resizable=0;points=[];movable=0;rotatable=0;deletable=0;editable=0;locked=1;connectable=0;" parent="NGXht7qQBhghTflk5gut-8" vertex="1" connectable="0">
          <mxGeometry x="0.2382" y="-1" relative="1" as="geometry">
            <mxPoint x="36" y="38" as="offset" />
          </mxGeometry>
        </mxCell>
        <mxCell id="qPfNC7R-L8oKVAkXrzBr-1" value="Application&lt;div&gt;&lt;/div&gt;" style="rounded=1;whiteSpace=wrap;html=1;movable=0;resizable=0;rotatable=0;deletable=0;editable=0;locked=1;connectable=0;fillColor=#d5e8d4;strokeColor=#82b366;" parent="1" vertex="1">
          <mxGeometry x="824" y="156" width="277" height="144" as="geometry" />
        </mxCell>
        <mxCell id="NGXht7qQBhghTflk5gut-17" style="edgeStyle=orthogonalEdgeStyle;curved=1;rounded=0;orthogonalLoop=1;jettySize=auto;html=1;exitX=0.75;exitY=1;exitDx=0;exitDy=0;entryX=0;entryY=0.5;entryDx=0;entryDy=0;fillColor=#1ba1e2;strokeColor=#006EAF;strokeWidth=2;movable=0;resizable=0;rotatable=0;deletable=0;editable=0;locked=1;connectable=0;" parent="1" source="NGXht7qQBhghTflk5gut-1" target="NGXht7qQBhghTflk5gut-3" edge="1">
          <mxGeometry relative="1" as="geometry" />
        </mxCell>
        <mxCell id="NGXht7qQBhghTflk5gut-18" style="edgeStyle=orthogonalEdgeStyle;curved=1;rounded=0;orthogonalLoop=1;jettySize=auto;html=1;exitX=1;exitY=0.5;exitDx=0;exitDy=0;fillColor=#1ba1e2;strokeColor=#006EAF;strokeWidth=2;movable=0;resizable=0;rotatable=0;deletable=0;editable=0;locked=1;connectable=0;" parent="1" source="NGXht7qQBhghTflk5gut-1" target="NGXht7qQBhghTflk5gut-2" edge="1">
          <mxGeometry relative="1" as="geometry" />
        </mxCell>
        <mxCell id="NGXht7qQBhghTflk5gut-47" style="edgeStyle=orthogonalEdgeStyle;curved=1;rounded=0;orthogonalLoop=1;jettySize=auto;html=1;exitX=0.75;exitY=0;exitDx=0;exitDy=0;entryX=0.618;entryY=0.983;entryDx=0;entryDy=0;fillColor=#60a917;strokeColor=#2D7600;strokeWidth=4;entryPerimeter=0;movable=0;resizable=0;rotatable=0;deletable=0;editable=0;locked=1;connectable=0;" parent="1" source="NGXht7qQBhghTflk5gut-1" target="qPfNC7R-L8oKVAkXrzBr-1" edge="1">
          <mxGeometry relative="1" as="geometry" />
        </mxCell>
        <mxCell id="NGXht7qQBhghTflk5gut-48" value="Authorized" style="edgeLabel;html=1;align=center;verticalAlign=middle;resizable=0;points=[];fontSize=12;fontColor=#00FF00;movable=0;rotatable=0;deletable=0;editable=0;locked=1;connectable=0;" parent="NGXht7qQBhghTflk5gut-47" vertex="1" connectable="0">
          <mxGeometry x="0.2695" y="-1" relative="1" as="geometry">
            <mxPoint x="1" y="-28" as="offset" />
          </mxGeometry>
        </mxCell>
        <mxCell id="NGXht7qQBhghTflk5gut-1" value="Login page" style="rounded=1;whiteSpace=wrap;html=1;movable=0;resizable=0;rotatable=0;deletable=0;editable=0;locked=1;connectable=0;" parent="1" vertex="1">
          <mxGeometry x="905" y="563" width="120" height="60" as="geometry" />
        </mxCell>
        <mxCell id="NGXht7qQBhghTflk5gut-21" style="edgeStyle=orthogonalEdgeStyle;curved=1;rounded=0;orthogonalLoop=1;jettySize=auto;html=1;exitX=0.5;exitY=0;exitDx=0;exitDy=0;entryX=1;entryY=0.5;entryDx=0;entryDy=0;strokeWidth=4;fillColor=#60a917;strokeColor=#2D7600;movable=0;resizable=0;rotatable=0;deletable=0;editable=0;locked=1;connectable=0;" parent="1" source="NGXht7qQBhghTflk5gut-2" target="qPfNC7R-L8oKVAkXrzBr-1" edge="1">
          <mxGeometry relative="1" as="geometry" />
        </mxCell>
        <mxCell id="NGXht7qQBhghTflk5gut-50" value="&lt;font&gt;Authorized&lt;/font&gt;" style="edgeLabel;html=1;align=center;verticalAlign=middle;resizable=0;points=[];fontSize=12;fontColor=#00FF00;movable=0;rotatable=0;deletable=0;editable=0;locked=1;connectable=0;" parent="NGXht7qQBhghTflk5gut-21" vertex="1" connectable="0">
          <mxGeometry x="-0.3054" y="31" relative="1" as="geometry">
            <mxPoint x="-41" y="-134" as="offset" />
          </mxGeometry>
        </mxCell>
        <mxCell id="NGXht7qQBhghTflk5gut-2" value="Register page" style="rounded=1;whiteSpace=wrap;html=1;movable=0;resizable=0;rotatable=0;deletable=0;editable=0;locked=1;connectable=0;" parent="1" vertex="1">
          <mxGeometry x="1181" y="563" width="120" height="60" as="geometry" />
        </mxCell>
        <mxCell id="NGXht7qQBhghTflk5gut-52" value="" style="edgeStyle=orthogonalEdgeStyle;curved=1;rounded=0;orthogonalLoop=1;jettySize=auto;html=1;movable=0;resizable=0;rotatable=0;deletable=0;editable=0;locked=1;connectable=0;" parent="1" source="NGXht7qQBhghTflk5gut-3" target="NGXht7qQBhghTflk5gut-19" edge="1">
          <mxGeometry relative="1" as="geometry" />
        </mxCell>
        <mxCell id="gB8IDYcGL1rvAf9TV__7-2" style="rounded=0;orthogonalLoop=1;jettySize=auto;html=1;exitX=0.25;exitY=1;exitDx=0;exitDy=0;entryX=1;entryY=0.5;entryDx=0;entryDy=0;edgeStyle=orthogonalEdgeStyle;curved=1;fillColor=#1ba1e2;strokeColor=#006EAF;strokeWidth=2;movable=0;resizable=0;rotatable=0;deletable=0;editable=0;locked=1;connectable=0;" parent="1" source="NGXht7qQBhghTflk5gut-3" target="NGXht7qQBhghTflk5gut-4" edge="1">
          <mxGeometry relative="1" as="geometry" />
        </mxCell>
        <mxCell id="NGXht7qQBhghTflk5gut-3" value="Forgot password page" style="rounded=1;whiteSpace=wrap;html=1;movable=0;resizable=0;rotatable=0;deletable=0;editable=0;locked=1;connectable=0;" parent="1" vertex="1">
          <mxGeometry x="1180" y="723" width="120" height="60" as="geometry" />
        </mxCell>
        <mxCell id="NGXht7qQBhghTflk5gut-12" style="edgeStyle=orthogonalEdgeStyle;rounded=0;orthogonalLoop=1;jettySize=auto;html=1;exitX=0.5;exitY=0;exitDx=0;exitDy=0;entryX=0.25;entryY=1;entryDx=0;entryDy=0;curved=1;fillColor=#1ba1e2;strokeColor=#006EAF;strokeWidth=2;movable=0;resizable=0;rotatable=0;deletable=0;editable=0;locked=1;connectable=0;" parent="1" source="NGXht7qQBhghTflk5gut-4" target="NGXht7qQBhghTflk5gut-1" edge="1">
          <mxGeometry relative="1" as="geometry" />
        </mxCell>
        <mxCell id="NGXht7qQBhghTflk5gut-4" value="Reset password page" style="rounded=1;whiteSpace=wrap;html=1;movable=0;resizable=0;rotatable=0;deletable=0;editable=0;locked=1;connectable=0;" parent="1" vertex="1">
          <mxGeometry x="875" y="846" width="120" height="60" as="geometry" />
        </mxCell>
        <mxCell id="NGXht7qQBhghTflk5gut-14" style="edgeStyle=orthogonalEdgeStyle;rounded=0;orthogonalLoop=1;jettySize=auto;html=1;exitX=1;exitY=0;exitDx=0;exitDy=0;entryX=0;entryY=0.5;entryDx=0;entryDy=0;curved=1;fillColor=#60a917;strokeColor=#2D7600;strokeWidth=4;movable=0;resizable=0;rotatable=0;deletable=0;editable=0;locked=1;connectable=0;" parent="1" source="NGXht7qQBhghTflk5gut-13" target="qPfNC7R-L8oKVAkXrzBr-1" edge="1">
          <mxGeometry relative="1" as="geometry" />
        </mxCell>
        <mxCell id="NGXht7qQBhghTflk5gut-15" style="edgeStyle=orthogonalEdgeStyle;curved=1;rounded=0;orthogonalLoop=1;jettySize=auto;html=1;exitX=1;exitY=0.5;exitDx=0;exitDy=0;entryX=0;entryY=0.5;entryDx=0;entryDy=0;fillColor=#1ba1e2;strokeColor=#006EAF;strokeWidth=2;movable=0;resizable=0;rotatable=0;deletable=0;editable=0;locked=1;connectable=0;" parent="1" source="NGXht7qQBhghTflk5gut-13" target="NGXht7qQBhghTflk5gut-1" edge="1">
          <mxGeometry relative="1" as="geometry" />
        </mxCell>
        <mxCell id="NGXht7qQBhghTflk5gut-16" style="edgeStyle=orthogonalEdgeStyle;curved=1;rounded=0;orthogonalLoop=1;jettySize=auto;html=1;exitX=1;exitY=1;exitDx=0;exitDy=0;entryX=0;entryY=0.5;entryDx=0;entryDy=0;fillColor=#1ba1e2;strokeColor=#006EAF;strokeWidth=2;movable=0;resizable=0;rotatable=0;deletable=0;editable=0;locked=1;connectable=0;" parent="1" source="NGXht7qQBhghTflk5gut-13" target="NGXht7qQBhghTflk5gut-4" edge="1">
          <mxGeometry relative="1" as="geometry" />
        </mxCell>
        <mxCell id="NGXht7qQBhghTflk5gut-25" value="One-time link" style="edgeLabel;html=1;align=center;verticalAlign=middle;resizable=0;points=[];fontSize=12;fontColor=light-dark(#007FFF,#006F6F);movable=0;rotatable=0;deletable=0;editable=0;locked=1;connectable=0;" parent="NGXht7qQBhghTflk5gut-16" vertex="1" connectable="0">
          <mxGeometry x="0.1202" y="1" relative="1" as="geometry">
            <mxPoint x="25" y="157" as="offset" />
          </mxGeometry>
        </mxCell>
        <mxCell id="NGXht7qQBhghTflk5gut-13" value="" style="ellipse;movable=0;resizable=0;rotatable=0;deletable=0;editable=0;locked=1;connectable=0;" parent="1" vertex="1">
          <mxGeometry x="544" y="224" width="30" height="30" as="geometry" />
        </mxCell>
        <mxCell id="NGXht7qQBhghTflk5gut-19" value="" style="ellipse;html=1;shape=endState;fillColor=#000000;strokeColor=#ff0000;movable=0;resizable=0;rotatable=0;deletable=0;editable=0;locked=1;connectable=0;" parent="1" vertex="1">
          <mxGeometry x="1226" y="928" width="30" height="30" as="geometry" />
        </mxCell>
        <mxCell id="NGXht7qQBhghTflk5gut-22" value="User" style="shape=umlActor;verticalLabelPosition=bottom;verticalAlign=top;html=1;movable=0;resizable=0;rotatable=0;deletable=0;editable=0;locked=1;connectable=0;" parent="1" vertex="1">
          <mxGeometry x="504" y="208" width="30" height="60" as="geometry" />
        </mxCell>
        <mxCell id="gB8IDYcGL1rvAf9TV__7-3" value="&lt;h1&gt;Password Authentication Sitemap&lt;/h1&gt;" style="text;html=1;align=center;verticalAlign=middle;whiteSpace=wrap;rounded=0;" parent="1" vertex="1">
          <mxGeometry x="785" y="31" width="343" height="58" as="geometry" />
        </mxCell>
        <mxCell id="gB8IDYcGL1rvAf9TV__7-4" value="&lt;div style=&quot;text-align: right;&quot;&gt;&lt;br&gt;&lt;/div&gt;" style="edgeStyle=orthogonalEdgeStyle;rounded=0;orthogonalLoop=1;jettySize=auto;html=1;exitX=0.4;exitY=1.009;exitDx=0;exitDy=0;entryX=0.25;entryY=0;entryDx=0;entryDy=0;curved=1;align=center;fillColor=#d80073;strokeColor=#A50040;strokeWidth=4;exitPerimeter=0;movable=0;resizable=0;rotatable=0;deletable=0;editable=0;locked=1;connectable=0;" parent="1" source="gB8IDYcGL1rvAf9TV__7-6" target="gB8IDYcGL1rvAf9TV__7-11" edge="1">
          <mxGeometry x="0.4444" y="-52" relative="1" as="geometry">
            <mxPoint as="offset" />
          </mxGeometry>
        </mxCell>
        <mxCell id="gB8IDYcGL1rvAf9TV__7-5" value="&lt;div style=&quot;&quot;&gt;&lt;span style=&quot;font-size: 12px; background-color: light-dark(#ffffff, var(--ge-dark-color, #121212));&quot;&gt;&lt;font style=&quot;color: rgb(255, 0, 0);&quot;&gt;Unauthorized&lt;/font&gt;&lt;/span&gt;&lt;/div&gt;&lt;font style=&quot;font-size: 12px; color: rgb(255, 0, 0);&quot;&gt;&lt;div style=&quot;&quot;&gt;&lt;span style=&quot;background-color: light-dark(#ffffff, var(--ge-dark-color, #121212));&quot;&gt;(Redirect with back URL)&lt;/span&gt;&lt;/div&gt;&lt;/font&gt;" style="edgeLabel;html=1;align=right;verticalAlign=middle;resizable=0;points=[];movable=0;rotatable=0;deletable=0;editable=0;locked=1;connectable=0;" parent="gB8IDYcGL1rvAf9TV__7-4" vertex="1" connectable="0">
          <mxGeometry x="0.2382" y="-1" relative="1" as="geometry">
            <mxPoint x="35" y="20" as="offset" />
          </mxGeometry>
        </mxCell>
        <mxCell id="gB8IDYcGL1rvAf9TV__7-6" value="Application&lt;div&gt;&lt;/div&gt;" style="rounded=1;whiteSpace=wrap;html=1;movable=0;resizable=0;rotatable=0;deletable=0;editable=0;locked=1;connectable=0;fillColor=#d5e8d4;strokeColor=#82b366;" parent="1" vertex="1">
          <mxGeometry x="894" y="1356" width="277" height="144" as="geometry" />
        </mxCell>
        <mxCell id="gB8IDYcGL1rvAf9TV__7-9" style="edgeStyle=orthogonalEdgeStyle;curved=1;rounded=0;orthogonalLoop=1;jettySize=auto;html=1;exitX=0.75;exitY=0;exitDx=0;exitDy=0;entryX=0.619;entryY=1.001;entryDx=0;entryDy=0;fillColor=#60a917;strokeColor=#2D7600;strokeWidth=4;entryPerimeter=0;movable=0;resizable=0;rotatable=0;deletable=0;editable=0;locked=1;connectable=0;" parent="1" source="gB8IDYcGL1rvAf9TV__7-11" target="gB8IDYcGL1rvAf9TV__7-6" edge="1">
          <mxGeometry relative="1" as="geometry" />
        </mxCell>
        <mxCell id="gB8IDYcGL1rvAf9TV__7-10" value="Authorized" style="edgeLabel;html=1;align=center;verticalAlign=middle;resizable=0;points=[];fontSize=12;fontColor=#00FF00;movable=0;rotatable=0;deletable=0;editable=0;locked=1;connectable=0;" parent="gB8IDYcGL1rvAf9TV__7-9" vertex="1" connectable="0">
          <mxGeometry x="0.2695" y="-1" relative="1" as="geometry">
            <mxPoint x="1" y="-28" as="offset" />
          </mxGeometry>
        </mxCell>
        <mxCell id="gB8IDYcGL1rvAf9TV__7-40" style="edgeStyle=orthogonalEdgeStyle;rounded=0;orthogonalLoop=1;jettySize=auto;html=1;exitX=0.5;exitY=1;exitDx=0;exitDy=0;entryX=0.5;entryY=0;entryDx=0;entryDy=0;shape=link;strokeWidth=1;dashed=1;movable=0;resizable=0;rotatable=0;deletable=0;editable=0;locked=1;connectable=0;" parent="1" source="gB8IDYcGL1rvAf9TV__7-11" target="gB8IDYcGL1rvAf9TV__7-28" edge="1">
          <mxGeometry relative="1" as="geometry" />
        </mxCell>
        <mxCell id="gB8IDYcGL1rvAf9TV__7-44" value="One-time passcode" style="edgeLabel;html=1;align=center;verticalAlign=middle;resizable=0;points=[];fontColor=#007FFF;movable=0;rotatable=0;deletable=0;editable=0;locked=1;connectable=0;" parent="gB8IDYcGL1rvAf9TV__7-40" vertex="1" connectable="0">
          <mxGeometry x="0.0145" y="4" relative="1" as="geometry">
            <mxPoint x="-2" y="6" as="offset" />
          </mxGeometry>
        </mxCell>
        <mxCell id="gB8IDYcGL1rvAf9TV__7-11" value="Login page" style="rounded=1;whiteSpace=wrap;html=1;movable=0;resizable=0;rotatable=0;deletable=0;editable=0;locked=1;connectable=0;" parent="1" vertex="1">
          <mxGeometry x="975" y="1729" width="120" height="60" as="geometry" />
        </mxCell>
        <mxCell id="gB8IDYcGL1rvAf9TV__7-20" style="edgeStyle=orthogonalEdgeStyle;rounded=0;orthogonalLoop=1;jettySize=auto;html=1;exitX=1;exitY=0;exitDx=0;exitDy=0;entryX=0;entryY=0.5;entryDx=0;entryDy=0;curved=1;fillColor=#60a917;strokeColor=#2D7600;strokeWidth=4;movable=0;resizable=0;rotatable=0;deletable=0;editable=0;locked=1;connectable=0;" parent="1" source="gB8IDYcGL1rvAf9TV__7-24" target="gB8IDYcGL1rvAf9TV__7-6" edge="1">
          <mxGeometry relative="1" as="geometry" />
        </mxCell>
        <mxCell id="gB8IDYcGL1rvAf9TV__7-21" style="edgeStyle=orthogonalEdgeStyle;curved=1;rounded=0;orthogonalLoop=1;jettySize=auto;html=1;exitX=1;exitY=0.5;exitDx=0;exitDy=0;entryX=0;entryY=0.5;entryDx=0;entryDy=0;fillColor=#1ba1e2;strokeColor=#006EAF;strokeWidth=2;movable=0;resizable=0;rotatable=0;deletable=0;editable=0;locked=1;connectable=0;" parent="1" source="gB8IDYcGL1rvAf9TV__7-24" target="gB8IDYcGL1rvAf9TV__7-11" edge="1">
          <mxGeometry relative="1" as="geometry" />
        </mxCell>
        <mxCell id="gB8IDYcGL1rvAf9TV__7-24" value="" style="ellipse;movable=0;resizable=0;rotatable=0;deletable=0;editable=0;locked=1;connectable=0;" parent="1" vertex="1">
          <mxGeometry x="614" y="1424" width="30" height="30" as="geometry" />
        </mxCell>
        <mxCell id="gB8IDYcGL1rvAf9TV__7-41" style="edgeStyle=orthogonalEdgeStyle;rounded=0;orthogonalLoop=1;jettySize=auto;html=1;entryX=0;entryY=0.5;entryDx=0;entryDy=0;shape=link;dashed=1;movable=0;resizable=0;rotatable=0;deletable=0;editable=0;locked=1;connectable=0;" parent="1" target="gB8IDYcGL1rvAf9TV__7-28" edge="1">
          <mxGeometry relative="1" as="geometry">
            <mxPoint x="716.6451612903224" y="1897.483870967742" as="targetPoint" />
            <mxPoint x="592" y="1492" as="sourcePoint" />
            <Array as="points">
              <mxPoint x="592" y="1957" />
            </Array>
          </mxGeometry>
        </mxCell>
        <mxCell id="gB8IDYcGL1rvAf9TV__7-26" value="User" style="shape=umlActor;verticalLabelPosition=bottom;verticalAlign=top;html=1;movable=0;resizable=0;rotatable=0;deletable=0;editable=0;locked=1;connectable=0;" parent="1" vertex="1">
          <mxGeometry x="574" y="1408" width="30" height="60" as="geometry" />
        </mxCell>
        <mxCell id="gB8IDYcGL1rvAf9TV__7-27" value="&lt;h1&gt;Password&lt;font style=&quot;color: rgb(204, 0, 0);&quot;&gt;less&lt;/font&gt; Authentication Sitemap&lt;/h1&gt;" style="text;html=1;align=center;verticalAlign=middle;whiteSpace=wrap;rounded=0;movable=0;resizable=0;rotatable=0;deletable=0;editable=0;locked=1;connectable=0;" parent="1" vertex="1">
          <mxGeometry x="815" y="1239" width="401" height="58" as="geometry" />
        </mxCell>
        <mxCell id="gB8IDYcGL1rvAf9TV__7-39" value="" style="group;movable=0;resizable=0;rotatable=0;deletable=0;editable=0;locked=1;connectable=0;" parent="1" vertex="1" connectable="0">
          <mxGeometry x="899" y="1904" width="272" height="106" as="geometry" />
        </mxCell>
        <mxCell id="gB8IDYcGL1rvAf9TV__7-28" value="&lt;b style=&quot;background-color: transparent; color: light-dark(rgb(0, 0, 0), rgb(255, 255, 255));&quot;&gt;Authenticator&amp;nbsp;&lt;/b&gt;&lt;br&gt;&lt;b style=&quot;background-color: transparent; color: light-dark(rgb(0, 0, 0), rgb(255, 255, 255));&quot;&gt;Application&lt;/b&gt;&lt;br&gt;&lt;b style=&quot;background-color: transparent; color: light-dark(rgb(0, 0, 0), rgb(255, 255, 255));&quot;&gt;(3rd-party)&lt;/b&gt;&lt;br&gt;&lt;div&gt;&lt;div&gt;&lt;/div&gt;&lt;/div&gt;" style="rounded=1;whiteSpace=wrap;html=1;align=center;verticalAlign=top;movable=0;resizable=0;rotatable=0;deletable=0;editable=0;locked=1;connectable=0;" parent="gB8IDYcGL1rvAf9TV__7-39" vertex="1">
          <mxGeometry width="272" height="106" as="geometry" />
        </mxCell>
        <mxCell id="gB8IDYcGL1rvAf9TV__7-30" value="" style="dashed=0;outlineConnect=0;html=1;align=center;labelPosition=center;verticalLabelPosition=bottom;verticalAlign=top;shape=mxgraph.weblogos.gmail;movable=0;resizable=0;rotatable=0;deletable=0;editable=0;locked=1;connectable=0;" parent="gB8IDYcGL1rvAf9TV__7-39" vertex="1">
          <mxGeometry x="159" y="63" width="33.8" height="24.42" as="geometry" />
        </mxCell>
        <mxCell id="gB8IDYcGL1rvAf9TV__7-35" value="" style="dashed=0;outlineConnect=0;html=1;align=center;labelPosition=center;verticalLabelPosition=bottom;verticalAlign=top;shape=mxgraph.weblogos.messenger_2;movable=0;resizable=0;rotatable=0;deletable=0;editable=0;locked=1;connectable=0;" parent="gB8IDYcGL1rvAf9TV__7-39" vertex="1">
          <mxGeometry x="136" y="61" width="29.4" height="29.58" as="geometry" />
        </mxCell>
        <mxCell id="gB8IDYcGL1rvAf9TV__7-36" value="" style="dashed=0;outlineConnect=0;html=1;align=center;labelPosition=center;verticalLabelPosition=bottom;verticalAlign=top;shape=mxgraph.weblogos.github;movable=0;resizable=0;rotatable=0;deletable=0;editable=0;locked=1;connectable=0;" parent="gB8IDYcGL1rvAf9TV__7-39" vertex="1">
          <mxGeometry x="109" y="60" width="30" height="30" as="geometry" />
        </mxCell>
        <mxCell id="gB8IDYcGL1rvAf9TV__7-37" value="" style="dashed=0;outlineConnect=0;html=1;align=center;labelPosition=center;verticalLabelPosition=bottom;verticalAlign=top;shape=mxgraph.weblogos.whatsapp;fillColor=#00E676;strokeColor=#dddddd;movable=0;resizable=0;rotatable=0;deletable=0;editable=0;locked=1;connectable=0;" parent="gB8IDYcGL1rvAf9TV__7-39" vertex="1">
          <mxGeometry x="84" y="60" width="32.4" height="32.57" as="geometry" />
        </mxCell>
        <mxCell id="rqJwnURKcu844MC0N2so-2" value="Client" style="rounded=1;whiteSpace=wrap;html=1;" parent="1" vertex="1">
          <mxGeometry x="670" y="2660" width="120" height="60" as="geometry" />
        </mxCell>
        <mxCell id="rqJwnURKcu844MC0N2so-3" value="Auth Server" style="rounded=1;whiteSpace=wrap;html=1;" parent="1" vertex="1">
          <mxGeometry x="1040" y="2660" width="120" height="60" as="geometry" />
        </mxCell>
        <mxCell id="rqJwnURKcu844MC0N2so-6" value="&lt;h1&gt;JWT Authentication&amp;nbsp;&lt;/h1&gt;" style="text;html=1;align=center;verticalAlign=middle;whiteSpace=wrap;rounded=0;movable=1;resizable=1;rotatable=1;deletable=1;editable=1;locked=0;connectable=1;" parent="1" vertex="1">
          <mxGeometry x="700" y="2450" width="401" height="58" as="geometry" />
        </mxCell>
        <mxCell id="rqJwnURKcu844MC0N2so-9" value="&lt;h1 style=&quot;margin-top: 0px;&quot;&gt;&lt;font&gt;React.js va Autentifikatsiya&lt;/font&gt;&lt;/h1&gt;&lt;p style=&quot;margin: 0px; font-variant-numeric: normal; font-variant-east-asian: normal; font-variant-alternates: normal; font-size-adjust: none; font-kerning: auto; font-optical-sizing: auto; font-feature-settings: normal; font-variation-settings: normal; font-variant-position: normal; font-variant-emoji: normal; font-stretch: normal; font-size: 13px; line-height: normal; font-family: &amp;quot;Helvetica Neue&amp;quot;; color: rgb(255, 255, 255);&quot; class=&quot;p1&quot;&gt;&lt;/p&gt;&lt;ul&gt;&lt;li&gt;&lt;font&gt;JWT autentifikatsiya&lt;br&gt;&lt;br&gt;&lt;/font&gt;&lt;/li&gt;&lt;li&gt;&lt;font&gt;Autentifikatsiya barqarorligi&lt;br&gt;&lt;br&gt;&lt;/font&gt;&lt;/li&gt;&lt;li&gt;&lt;font&gt;Token yangilanishi&lt;br&gt;&lt;br&gt;&lt;/font&gt;&lt;/li&gt;&lt;li&gt;&lt;font&gt;Marshrutizatsiya (Routing)&lt;br&gt;&lt;br&gt;&lt;/font&gt;&lt;/li&gt;&lt;li&gt;&lt;font&gt;Server bilan avtorizatsiyali aloqa&lt;br&gt;&lt;br&gt;&lt;/font&gt;&lt;/li&gt;&lt;li&gt;&lt;font&gt;Xavfsizlikni ta&#39;minlash&lt;/font&gt;&lt;/li&gt;&lt;/ul&gt;&lt;p&gt;&lt;/p&gt;" style="text;html=1;whiteSpace=wrap;overflow=hidden;rounded=0;" parent="1" vertex="1">
          <mxGeometry x="80" y="-1160" width="370" height="230" as="geometry" />
        </mxCell>
        <mxCell id="eyHOYX8g_O-W2bf7M9Ld-1" value="&lt;div&gt;&lt;h1 style=&quot;margin-top: 0px;&quot;&gt;Maqsad&lt;/h1&gt;&lt;p style=&quot;margin: 0px; font-variant-numeric: normal; font-variant-east-asian: normal; font-variant-alternates: normal; font-size-adjust: none; font-kerning: auto; font-optical-sizing: auto; font-feature-settings: normal; font-variation-settings: normal; font-variant-position: normal; font-variant-emoji: normal; font-stretch: normal; font-size: 13px; line-height: normal; font-family: &amp;quot;Helvetica Neue&amp;quot;; color: rgb(255, 255, 255);&quot; class=&quot;p1&quot;&gt;&lt;/p&gt;&lt;ul&gt;&lt;li&gt;&lt;b&gt;Ishonchli va mustahkam&lt;/b&gt; autentifikatsiya interfeysi va boshqaruvini qurish&lt;br&gt;&lt;br&gt;&lt;/li&gt;&lt;li&gt;&lt;b&gt;Yaxshi UX&lt;/b&gt; ni ta&#39;minlash&lt;br&gt;&lt;br&gt;&lt;/li&gt;&lt;li&gt;&lt;b&gt;Yuqori darajadagi xavfsizlik&lt;/b&gt;ni ta&#39;minlash&lt;/li&gt;&lt;/ul&gt;&lt;/div&gt;" style="text;html=1;whiteSpace=wrap;overflow=hidden;rounded=0;" vertex="1" parent="1">
          <mxGeometry x="80" y="-880" width="460" height="170" as="geometry" />
        </mxCell>
        <mxCell id="eyHOYX8g_O-W2bf7M9Ld-2" value="&lt;h1 style=&quot;margin-top: 0px;&quot;&gt;Functional requiments&lt;/h1&gt;&lt;p&gt;&lt;/p&gt;&lt;ol&gt;&lt;li&gt;Login + Registration + Logout&lt;/li&gt;&lt;li&gt;Parolni qayta tiklash&lt;/li&gt;&lt;li&gt;Dasturning ximoyalangan sahiflari bo&#39;lishi&lt;/li&gt;&lt;li&gt;Token amal qilihsi tugaganda Login sahifasiga o&#39;tkazish va muvafaqiyatli logindan sogn oldingi ish sahifasiga yqayta yo&#39;naltirish&lt;/li&gt;&lt;li&gt;Ixtiyoriy: Role-based autentifikatsiya&lt;/li&gt;&lt;li&gt;Ixtiyoriy: &quot;Meni eslab qol&quot; imkoniyati&lt;/li&gt;&lt;/ol&gt;&lt;p&gt;&lt;/p&gt;&lt;p&gt;&lt;br&gt;&lt;/p&gt;&lt;h1 style=&quot;margin-top: 0px;&quot;&gt;Non-functional requiments&lt;/h1&gt;&lt;p&gt;&lt;/p&gt;&lt;ol&gt;&lt;li&gt;Tokenlarni ko&#39;rinmas ravishda tezkor almashtirish (semmless token rotation)&lt;/li&gt;&lt;li&gt;Formlarni tog&#39;ri submit qilish&lt;/li&gt;&lt;li&gt;API sorovnomalarni optimizatsiya qilish/minimal sondagi sorovnomalar jonatish&lt;/li&gt;&lt;li&gt;Sahifadan sahifaga o&#39;tishda &quot;boshi berk ko&#39;chalar&quot;ni oldini olish&lt;/li&gt;&lt;li&gt;CSRF vs XSS hujumlari olidni olish&lt;/li&gt;&lt;/ol&gt;&lt;p&gt;&lt;/p&gt;" style="text;html=1;whiteSpace=wrap;overflow=hidden;rounded=0;" vertex="1" parent="1">
          <mxGeometry x="80" y="-640" width="400" height="440" as="geometry" />
        </mxCell>
        <mxCell id="eyHOYX8g_O-W2bf7M9Ld-3" value="&lt;h1 style=&quot;margin-top: 0px;&quot;&gt;&lt;font style=&quot;font-size: 31px;&quot;&gt;Replace&lt;/font&gt;&lt;/h1&gt;&lt;p&gt;&lt;/p&gt;&lt;ul&gt;&lt;li&gt;&lt;font style=&quot;font-size: 31px;&quot;&gt;Login -&amp;gt; Dashboard&lt;br&gt;&lt;br&gt;&lt;/font&gt;&lt;/li&gt;&lt;li&gt;&lt;font style=&quot;font-size: 31px;&quot;&gt;Registration -&amp;gt; Dashboard&lt;br&gt;&lt;br&gt;&lt;/font&gt;&lt;/li&gt;&lt;li&gt;&lt;font style=&quot;font-size: 31px;&quot;&gt;Reset password -&amp;gt; Login&lt;br&gt;&lt;br&gt;&lt;/font&gt;&lt;/li&gt;&lt;li&gt;&lt;font style=&quot;font-size: 31px;&quot;&gt;Dashboard -&amp;gt; Login -&amp;gt; BackURL Dashboard&lt;/font&gt;&lt;/li&gt;&lt;/ul&gt;&lt;p&gt;&lt;/p&gt;" style="text;html=1;whiteSpace=wrap;overflow=hidden;rounded=0;" vertex="1" parent="1">
          <mxGeometry x="1340" y="70" width="760" height="630" as="geometry" />
        </mxCell>
        <mxCell id="eyHOYX8g_O-W2bf7M9Ld-5" value="&lt;span style=&quot;font-size: 11px; text-wrap-mode: nowrap; background-color: rgb(255, 255, 255);&quot;&gt;accessToken&lt;br&gt;&lt;br&gt;&lt;/span&gt;&lt;div&gt;&lt;span style=&quot;font-size: 11px; text-wrap-mode: nowrap; background-color: rgb(255, 255, 255);&quot;&gt;&lt;br&gt;&lt;/span&gt;&lt;/div&gt;&lt;div&gt;&lt;span style=&quot;font-size: 11px; text-wrap-mode: nowrap; background-color: rgb(255, 255, 255);&quot;&gt;&lt;br&gt;&lt;/span&gt;&lt;/div&gt;&lt;div&gt;&lt;span style=&quot;font-size: 11px; text-wrap-mode: nowrap; background-color: rgb(255, 255, 255);&quot;&gt;&lt;br&gt;&lt;/span&gt;&lt;/div&gt;&lt;div&gt;&lt;span style=&quot;font-size: 11px; text-wrap-mode: nowrap; background-color: rgb(255, 255, 255);&quot;&gt;&lt;br&gt;&lt;/span&gt;&lt;/div&gt;&lt;div&gt;&lt;span style=&quot;font-size: 11px; text-wrap-mode: nowrap; background-color: rgb(255, 255, 255);&quot;&gt;&lt;br&gt;&lt;/span&gt;&lt;/div&gt;&lt;div&gt;&lt;span style=&quot;font-size: 11px; text-wrap-mode: nowrap; background-color: rgb(255, 255, 255);&quot;&gt;&lt;br&gt;&lt;/span&gt;&lt;/div&gt;&lt;div&gt;&lt;span style=&quot;font-size: 11px; text-wrap-mode: nowrap; background-color: rgb(255, 255, 255);&quot;&gt;&lt;br&gt;&lt;/span&gt;&lt;/div&gt;&lt;div&gt;&lt;span style=&quot;font-size: 11px; text-wrap-mode: nowrap; background-color: rgb(255, 255, 255);&quot;&gt;&lt;br&gt;&lt;/span&gt;&lt;/div&gt;&lt;div&gt;&lt;span style=&quot;font-size: 11px; text-wrap-mode: nowrap; background-color: rgb(255, 255, 255);&quot;&gt;&lt;br&gt;&lt;/span&gt;&lt;/div&gt;&lt;div&gt;&lt;span style=&quot;font-size: 11px; text-wrap-mode: nowrap; background-color: rgb(255, 255, 255);&quot;&gt;&lt;br&gt;&lt;/span&gt;&lt;/div&gt;&lt;div&gt;&lt;span style=&quot;font-size: 11px; text-wrap-mode: nowrap; background-color: rgb(255, 255, 255);&quot;&gt;&lt;br&gt;&lt;/span&gt;&lt;/div&gt;&lt;div&gt;&lt;span style=&quot;font-size: 11px; text-wrap-mode: nowrap; background-color: rgb(255, 255, 255);&quot;&gt;&lt;br&gt;&lt;/span&gt;&lt;/div&gt;&lt;div style=&quot;&quot;&gt;&lt;br&gt;&lt;/div&gt;" style="rounded=0;whiteSpace=wrap;html=1;fillColor=none;align=left;" vertex="1" parent="1">
          <mxGeometry x="760" y="110" width="440" height="230" as="geometry" />
        </mxCell>
        <mxCell id="eyHOYX8g_O-W2bf7M9Ld-8" style="edgeStyle=orthogonalEdgeStyle;rounded=0;orthogonalLoop=1;jettySize=auto;html=1;exitX=1;exitY=0.5;exitDx=0;exitDy=0;entryX=0;entryY=0.5;entryDx=0;entryDy=0;" edge="1" parent="1" source="eyHOYX8g_O-W2bf7M9Ld-6" target="eyHOYX8g_O-W2bf7M9Ld-7">
          <mxGeometry relative="1" as="geometry" />
        </mxCell>
        <mxCell id="eyHOYX8g_O-W2bf7M9Ld-6" value="client" style="rounded=1;whiteSpace=wrap;html=1;" vertex="1" parent="1">
          <mxGeometry x="20" y="480" width="120" height="60" as="geometry" />
        </mxCell>
        <mxCell id="eyHOYX8g_O-W2bf7M9Ld-10" style="edgeStyle=orthogonalEdgeStyle;rounded=0;orthogonalLoop=1;jettySize=auto;html=1;exitX=0;exitY=1;exitDx=0;exitDy=0;entryX=1;entryY=1;entryDx=0;entryDy=0;" edge="1" parent="1" source="eyHOYX8g_O-W2bf7M9Ld-7" target="eyHOYX8g_O-W2bf7M9Ld-6">
          <mxGeometry relative="1" as="geometry" />
        </mxCell>
        <mxCell id="eyHOYX8g_O-W2bf7M9Ld-11" value="{ &lt;br&gt;accessToken: &#39;sdfsdfsdfdsfsdf&#39;,&lt;br&gt;user: {name, id}&lt;br&gt;}" style="edgeLabel;html=1;align=left;verticalAlign=middle;resizable=0;points=[];" vertex="1" connectable="0" parent="eyHOYX8g_O-W2bf7M9Ld-10">
          <mxGeometry x="0.0698" y="1" relative="1" as="geometry">
            <mxPoint as="offset" />
          </mxGeometry>
        </mxCell>
        <mxCell id="eyHOYX8g_O-W2bf7M9Ld-20" style="edgeStyle=orthogonalEdgeStyle;rounded=0;orthogonalLoop=1;jettySize=auto;html=1;exitX=0.5;exitY=1;exitDx=0;exitDy=0;curved=1;" edge="1" parent="1" source="eyHOYX8g_O-W2bf7M9Ld-7">
          <mxGeometry relative="1" as="geometry">
            <mxPoint x="90" y="540.0645161290322" as="targetPoint" />
            <Array as="points">
              <mxPoint x="430" y="630" />
              <mxPoint x="90" y="630" />
            </Array>
          </mxGeometry>
        </mxCell>
        <mxCell id="eyHOYX8g_O-W2bf7M9Ld-21" value="refreshToken" style="edgeLabel;html=1;align=center;verticalAlign=middle;resizable=0;points=[];" vertex="1" connectable="0" parent="eyHOYX8g_O-W2bf7M9Ld-20">
          <mxGeometry x="-0.1642" relative="1" as="geometry">
            <mxPoint as="offset" />
          </mxGeometry>
        </mxCell>
        <mxCell id="eyHOYX8g_O-W2bf7M9Ld-7" value="server" style="rounded=1;whiteSpace=wrap;html=1;" vertex="1" parent="1">
          <mxGeometry x="370" y="480" width="120" height="60" as="geometry" />
        </mxCell>
        <mxCell id="eyHOYX8g_O-W2bf7M9Ld-9" value="Login &amp;gt;" style="text;html=1;align=center;verticalAlign=middle;resizable=0;points=[];autosize=1;strokeColor=none;fillColor=none;" vertex="1" parent="1">
          <mxGeometry x="210" y="488" width="60" height="30" as="geometry" />
        </mxCell>
        <mxCell id="eyHOYX8g_O-W2bf7M9Ld-12" style="edgeStyle=orthogonalEdgeStyle;rounded=0;orthogonalLoop=1;jettySize=auto;html=1;exitX=1;exitY=0.5;exitDx=0;exitDy=0;entryX=0;entryY=0.5;entryDx=0;entryDy=0;" edge="1" parent="1" source="eyHOYX8g_O-W2bf7M9Ld-13" target="eyHOYX8g_O-W2bf7M9Ld-16">
          <mxGeometry relative="1" as="geometry" />
        </mxCell>
        <mxCell id="eyHOYX8g_O-W2bf7M9Ld-13" value="client" style="rounded=1;whiteSpace=wrap;html=1;" vertex="1" parent="1">
          <mxGeometry x="20" y="780" width="120" height="60" as="geometry" />
        </mxCell>
        <mxCell id="eyHOYX8g_O-W2bf7M9Ld-16" value="server" style="rounded=1;whiteSpace=wrap;html=1;" vertex="1" parent="1">
          <mxGeometry x="370" y="780" width="120" height="60" as="geometry" />
        </mxCell>
        <mxCell id="eyHOYX8g_O-W2bf7M9Ld-17" value="Authorization: Bearer token" style="text;html=1;align=center;verticalAlign=middle;resizable=0;points=[];autosize=1;strokeColor=none;fillColor=none;" vertex="1" parent="1">
          <mxGeometry x="155" y="780" width="170" height="30" as="geometry" />
        </mxCell>
        <mxCell id="eyHOYX8g_O-W2bf7M9Ld-19" value="&lt;span style=&quot;text-wrap-mode: nowrap;&quot;&gt;Autentifikatsiya -&amp;gt; Kimsan? HTTP 401 Unauthorized&lt;/span&gt;&lt;br style=&quot;text-wrap-mode: nowrap;&quot;&gt;&lt;br style=&quot;text-wrap-mode: nowrap;&quot;&gt;&lt;br style=&quot;text-wrap-mode: nowrap;&quot;&gt;&lt;br style=&quot;text-wrap-mode: nowrap;&quot;&gt;&lt;span style=&quot;text-wrap-mode: nowrap;&quot;&gt;Avtorizatsiya -&amp;gt; Nima qilishing mukin? HTTP 403 Forbiden&lt;/span&gt;" style="text;html=1;align=left;verticalAlign=middle;whiteSpace=wrap;rounded=0;" vertex="1" parent="1">
          <mxGeometry x="30" y="940" width="2220" height="180" as="geometry" />
        </mxCell>
        <mxCell id="eyHOYX8g_O-W2bf7M9Ld-22" value="Browser&lt;div&gt;&lt;br&gt;&lt;/div&gt;&lt;div&gt;&lt;br&gt;&lt;/div&gt;" style="rounded=1;whiteSpace=wrap;html=1;align=center;" vertex="1" parent="1">
          <mxGeometry x="50" y="40" width="210" height="160" as="geometry" />
        </mxCell>
        <mxCell id="eyHOYX8g_O-W2bf7M9Ld-23" value="Webapp" style="rounded=1;whiteSpace=wrap;html=1;align=left;" vertex="1" parent="1">
          <mxGeometry x="100" y="130" width="120" height="60" as="geometry" />
        </mxCell>
        <mxCell id="eyHOYX8g_O-W2bf7M9Ld-24" value="server" style="rounded=1;whiteSpace=wrap;html=1;" vertex="1" parent="1">
          <mxGeometry x="450" y="90" width="120" height="60" as="geometry" />
        </mxCell>
        <mxCell id="eyHOYX8g_O-W2bf7M9Ld-25" style="edgeStyle=orthogonalEdgeStyle;rounded=0;orthogonalLoop=1;jettySize=auto;html=1;exitX=0;exitY=0.25;exitDx=0;exitDy=0;entryX=1.008;entryY=0.394;entryDx=0;entryDy=0;entryPerimeter=0;" edge="1" parent="1" source="eyHOYX8g_O-W2bf7M9Ld-24" target="eyHOYX8g_O-W2bf7M9Ld-22">
          <mxGeometry relative="1" as="geometry" />
        </mxCell>
        <mxCell id="eyHOYX8g_O-W2bf7M9Ld-26" value="refreshToken httponly cokkie" style="edgeLabel;html=1;align=center;verticalAlign=middle;resizable=0;points=[];" vertex="1" connectable="0" parent="eyHOYX8g_O-W2bf7M9Ld-25">
          <mxGeometry x="0.1314" y="-3" relative="1" as="geometry">
            <mxPoint x="5" y="-10" as="offset" />
          </mxGeometry>
        </mxCell>
        <mxCell id="eyHOYX8g_O-W2bf7M9Ld-27" style="edgeStyle=orthogonalEdgeStyle;rounded=0;orthogonalLoop=1;jettySize=auto;html=1;exitX=0.25;exitY=1;exitDx=0;exitDy=0;entryX=0.992;entryY=0.594;entryDx=0;entryDy=0;entryPerimeter=0;" edge="1" parent="1" source="eyHOYX8g_O-W2bf7M9Ld-24" target="eyHOYX8g_O-W2bf7M9Ld-23">
          <mxGeometry relative="1" as="geometry" />
        </mxCell>
        <mxCell id="eyHOYX8g_O-W2bf7M9Ld-28" value="accessToken - JSON data" style="edgeLabel;html=1;align=center;verticalAlign=middle;resizable=0;points=[];" vertex="1" connectable="0" parent="eyHOYX8g_O-W2bf7M9Ld-27">
          <mxGeometry x="0.0022" y="1" relative="1" as="geometry">
            <mxPoint y="9" as="offset" />
          </mxGeometry>
        </mxCell>
      </root>
    </mxGraphModel>
  </diagram>
</mxfile>
